#!OML:ASF H:\BabyWalks\Project 1\Capture day 1\Session 1\baby.ASF
:FULLY-SPECIFIED
:DEGREES
395
root 1.16555 17.5901 -1.22725 -164.057 73.4247 -176.002
lowerback 29.6231 1.98567 1.21031
upperback 10.4294 4.38106 3.54172
thorax -4.73432 2.58649 1.74989
lowerneck 3.07639 -6.91009 5.54162
upperneck -18.3218 -8.83389 -0.675627
head -6.35679 -4.47041 -0.557226
rclavicle -3.26007e-014 -2.14687e-014
rhumerus -43.3166 6.50348 -73.0854
rradius 51.9489
rwrist -2.88449
rhand -20.8078 -19.468
rfingers 7.12502
rthumb 5.55987 -49.3751
lclavicle -3.26007e-014 -2.14687e-014
lhumerus -63.1432 0.816428 76.0663
lradius 44.7311
lwrist -1.87564
lhand -3.22703 6.58007
lfingers 7.12502
lthumb 22.4961 35.2897
rfemur -32.4769 5.78196 16.019
rtibia 37.1707
rfoot -15.1405 0.0820892
rtoes 1.27273
lfemur -36.8157 -10.8286 -11.0041
ltibia 36.6839
lfoot -15.6048 -24.2848
ltoes 4.64837
396
root 1.21862 17.603 -1.21226 -165.099 73.1205 -176.733
lowerback 29.4012 2.00823 1.25618
upperback 10.3625 4.41624 3.61112
thorax -4.71114 2.60179 1.79543
lowerneck 2.98313 -7.01627 5.5282
upperneck -18.1045 -9.0038 -0.764744
head -6.28043 -4.54785 -0.577822
rclavicle -3.18055e-015 -3.18055e-014
rhumerus -42.7667 5.74653 -72.2256
rradius 52.2699
rwrist -3.27848
rhand -22.2869 -19.7877
rfingers 7.12502
rthumb 4.13172 -49.7274
lclavicle -3.18055e-015 -3.18055e-014
lhumerus -63.2213 0.735354 76.0116
lradius 44.874
lwrist -1.82521
lhand -2.82895 6.48104
lfingers 7.12502
lthumb 22.8781 35.1439
rfemur -31.884 5.5742 15.9987
rtibia 37.2351
rfoot -15.303 0.0697076
rtoes 1.17096
lfemur -36.1193 -10.8761 -11.2613
ltibia 36.2897
lfoot -15.5479 -24.6032
ltoes 4.73017
397
root 1.27235 17.6159 -1.1987 -166.094 72.8661 -177.404
lowerback 29.1563 2.03361 1.27407
upperback 10.2932 4.44243 3.65785
thorax -4.6792 2.61193 1.83592
lowerneck 2.88576 -7.10545 5.51485
upperneck -17.8822 -9.14941 -0.854444
head -6.20125 -4.6136 -0.60082
rclavicle 7.95139e-014 -8.74653e-015
rhumerus -42.2574 5.06732 -71.4565
rradius 52.643
rwrist -3.68374
rhand -23.3504 -19.9105
rfingers 7.12502
rthumb 3.10469 -49.8676
lclavicle 7.95139e-014 -8.74653e-015
lhumerus -63.2761 0.705818 75.9441
lradius 45.0317
lwrist -1.79765
lhand -2.5026 6.37494
lfingers 7.12502
lthumb 23.1913 34.9988
rfemur -31.2722 5.39668 15.9764
rtibia 37.2779
rfoot -15.446 0.0830092
rtoes 0.99629
lfemur -35.3863 -10.8905 -11.5211
ltibia 35.8944
lfoot -15.5225 -24.8916
ltoes 4.7886
398
root 1.32686 17.6286 -1.18643 -167.006 72.6602 -177.97
lowerback 28.8944 2.06111 1.27459
upperback 10.2215 4.46264 3.68613
thorax -4.64101 2.61851 1.86873
lowerneck 2.79924 -7.18084 5.50602
upperneck -17.6631 -9.27334 -0.939043
head -6.12451 -4.66961 -0.624144
rclavicle -2.3059e-014 -2.46493e-014
rhumerus -41.7942 4.46562 -70.7909
rradius 53.0571
rwrist -4.09513
rhand -23.995 -19.8321
rfingers 7.12502
rthumb 2.4822 -49.7974
lclavicle -2.3059e-014 -2.46493e-014
lhumerus -63.3138 0.727596 75.8583
lradius 45.2092
lwrist -1.78027
lhand -2.25309 6.27747
lfingers 7.12502
lthumb 23.4306 34.8709
rfemur -30.6299 5.25815 15.9722
rtibia 37.2899
rfoot -15.575 0.108278
rtoes 0.739866
lfemur -34.6134 -10.8777 -11.7636
ltibia 35.5032
lfoot -15.5429 -25.1412
ltoes 4.80129
399
root 1.3821 17.6409 -1.17572 -167.859 72.4953 -178.454
lowerback 28.6193 2.08534 1.26194
upperback 10.1477 4.47172 3.69535
thorax -4.59754 2.61922 1.89228
lowerneck 2.72915 -7.24692 5.49564
upperneck -17.4461 -9.38128 -1.01139
head -6.05029 -4.71879 -0.643965
rclavicle -1.59028e-014 3.26007e-014
rhumerus -41.3804 3.97359 -70.2343
rradius 53.5121
rwrist -4.53487
rhand -24.2808 -19.5961
rfingers 7.12502
rthumb 2.2062 -49.5644
lclavicle -1.59028e-014 3.26007e-014
lhumerus -63.3339 0.807082 75.7517
lradius 45.4026
lwrist -1.76212
lhand -2.08837 6.18982
lfingers 7.12502
lthumb 23.5886 34.763
rfemur -29.9479 5.15093 15.9827
rtibia 37.2633
rfoot -15.6957 0.143814
rtoes 0.448412
lfemur -33.8022 -10.8597 -11.9898
ltibia 35.1201
lfoot -15.6127 -25.3406
ltoes 4.77226
400
root 1.43769 17.6529 -1.16703 -168.666 72.3633 -178.872
lowerback 28.3322 2.1017 1.24954
upperback 10.0697 4.46716 3.68143
thorax -4.55015 2.613 1.8951
lowerneck 2.66605 -7.3073 5.4867
upperneck -17.2171 -9.47813 -1.06799
head -5.97262 -4.76414 -0.65992
rclavicle -2.62396e-014 -4.29375e-014
rhumerus -41.0216 3.59417 -69.7998
rradius 53.999
rwrist -5.01352
rhand -24.2688 -19.2639
rfingers 7.12502
rthumb 2.21779 -49.2321
lclavicle -2.62396e-014 -4.29375e-014
lhumerus -63.3352 0.927241 75.6276
lradius 45.6144
lwrist -1.72888
lhand -2.00053 6.10089
lfingers 7.12502
lthumb 23.6729 34.6632
rfemur -29.223 5.05926 16.0057
rtibia 37.187
rfoot -15.8094 0.193399
rtoes 0.153915
lfemur -32.9629 -10.851 -12.2026
ltibia 34.7549
lfoot -15.7383 -25.4835
ltoes 4.69741
401
root 1.49399 17.6643 -1.15956 -169.392 72.261 -179.182
lowerback 28.0368 2.11069 1.23695
upperback 9.98848 4.45089 3.65418
thorax -4.50032 2.6008 1.88742
lowerneck 2.6077 -7.35984 5.46612
upperneck -16.9664 -9.56152 -1.10331
head -5.88699 -4.80416 -0.668732
rclavicle 7.63333e-014 2.22639e-014
rhumerus -40.7165 3.35368 -69.4889
rradius 54.5124
rwrist -5.54633
rhand -24.0217 -18.9049
rfingers 7.12502
rthumb 2.45641 -48.8705
lclavicle 7.63333e-014 2.22639e-014
lhumerus -63.3172 1.09172 75.4928
lradius 45.8389
lwrist -1.6804
lhand -1.98279 6.02577
lfingers 7.12502
lthumb 23.6899 34.5859
rfemur -28.4496 5.00014 16.0587
rtibia 37.0574
rfoot -15.9212 0.238225
rtoes -0.113788
lfemur -32.0941 -10.8545 -12.3824
ltibia 34.41
lfoot -15.9183 -25.5719
ltoes 4.5868
